<svg width="312" height="252" viewBox="0 0 312 252" fill="none" xmlns="http://www.w3.org/2000/svg">
<g id="Icon Illustrations">
<g id="Oval 2 Copy 2" opacity="0.24" filter="url(#filter0_f_0_499)">
<ellipse cx="187.24" cy="122.002" rx="38.1201" ry="37.6364" fill="#FF7EFA" fill-opacity="0.98"/>
</g>
<path id="Path 33" d="M121.136 236.207L159.891 213.541V169.028L121.136 192.381V236.207Z" fill="url(#paint0_linear_0_499)"/>
<path id="Path 34" d="M121.16 236.55L84.115 215.612V169.669L121.16 192.766V236.55Z" fill="url(#paint1_linear_0_499)"/>
<path id="Path 34 Copy" opacity="0.4" d="M115.289 225.95L89.9861 211.649V180.269L115.289 196.045V225.95Z" stroke="url(#paint2_linear_0_499)" stroke-width="0.864"/>
<g id="Group 39">
<path id="Path 7 Copy" opacity="0.405357" d="M121.92 180.545L102.88 169.651L24.2952 30.5508H125.207L138.24 169.651L121.92 180.545Z" fill="url(#paint3_linear_0_499)"/>
<path id="Path 7" opacity="0.405357" d="M138.24 169.792L176.32 40.7532H102.88L130.08 185.922L138.24 169.792Z" fill="url(#paint4_linear_0_499)"/>
<g id="Group 23">
<path id="Combined Shape" d="M157.648 116.037C162.203 113.066 165.41 112.743 167.365 114.12L170.451 115.732L169.727 116.772C172.087 123.816 165.996 139.879 153.214 147.515C150.523 149.122 148.313 149.929 146.551 150.094L145.882 151.057L143.656 149.635C136.906 146.181 143.292 125.4 157.648 116.037Z" fill="#D7911D"/>
<path id="Path 10" d="M161.363 117.557C142.672 129.797 136.506 161.319 156.365 149.407C176.224 137.495 180.053 105.318 161.363 117.557Z" fill="url(#paint5_linear_0_499)"/>
<path id="Path 10 Copy 2" opacity="0.4" d="M160.363 122.393C146.98 131.444 142.829 154.07 157.049 145.261C171.269 136.452 173.747 113.342 160.363 122.393Z" stroke="#D7911D" stroke-width="0.5"/>
</g>
<g id="Group 23 Copy 8">
<path id="Combined Shape_2" d="M64.1588 109.597C58.79 110.459 55.7287 109.45 54.5029 107.397L52.3395 104.669L53.4234 104.013C54.133 96.6179 66.2299 84.4213 81.0132 82.6446C84.1254 82.2706 86.4722 82.4319 88.1489 82.9982L89.1523 82.391L90.6072 84.5951C95.3684 90.4956 81.0826 106.883 64.1588 109.597Z" fill="#D7911D"/>
<path id="Path 10_2" d="M61.3842 106.698C83.437 103.118 101.891 76.8294 78.9043 79.634C55.9174 82.4386 39.3314 110.277 61.3842 106.698Z" fill="url(#paint6_linear_0_499)"/>
<path id="Path 10 Copy 2_2" opacity="0.4" d="M64.2639 102.686C80.1719 99.861 93.1669 80.8799 76.5931 83.1433C60.0193 85.4068 48.356 105.511 64.2639 102.686Z" stroke="#D7911D" stroke-width="0.5"/>
</g>
<g id="Group 23 Copy 7">
<path id="Combined Shape_3" d="M146.519 71.699C146.503 67.9814 147.538 66.096 149.1 65.5989L151.234 64.5814L151.572 65.4074C156.642 67.0369 163.816 77.0166 163.446 87.1604C163.368 89.296 163 90.8369 162.424 91.8673L162.738 92.6319L161.045 93.2583C156.421 95.5135 146.568 83.4179 146.519 71.699Z" fill="#D7911D"/>
<path id="Path 10_3" d="M148.673 70.5368C148.767 85.8139 165.058 102.239 165.605 86.4598C166.151 70.6804 148.579 55.2598 148.673 70.5368Z" fill="url(#paint7_linear_0_499)"/>
<path id="Path 10 Copy 3" opacity="0.3" d="M150.546 72.311C150.62 84.1885 163.285 96.9588 163.71 84.6907C164.135 72.4227 150.473 60.4335 150.546 72.311Z" stroke="#D7911D" stroke-width="0.5"/>
</g>
</g>
<path id="Path 35" d="M84.115 170.022L122.158 149.149L159.317 169.38L121.198 192.638L84.115 170.022Z" fill="url(#paint8_linear_0_499)"/>
<path id="Path 35_2" d="M102.95 170.514L122.007 160.05L140.62 170.193L121.526 181.853L102.95 170.514Z" fill="url(#paint9_linear_0_499)"/>
<g id="Oval 2" opacity="0.405357" filter="url(#filter1_f_0_499)">
<ellipse cx="156.209" cy="205.13" rx="24.3559" ry="24.0468" fill="#FFC37E" fill-opacity="0.98"/>
</g>
<g id="Oval 2 Copy" opacity="0.405357" filter="url(#filter2_f_0_499)">
<ellipse cx="77.0645" cy="176.513" rx="23.1443" ry="22.8507" fill="#FF7E95" fill-opacity="0.98"/>
</g>
<path id="Path 53" d="M122.435 169.669V134.899L137.516 123.262C138.152 122.771 138.525 122.013 138.525 121.21V99.1315" stroke="url(#paint10_linear_0_499)" stroke-width="0.864"/>
<path id="Path 54" d="M122.379 134.783V120.616C122.379 119.184 121.218 118.024 119.787 118.024H108.795V99.7727" stroke="url(#paint11_linear_0_499)" stroke-width="0.864"/>
<ellipse id="Oval 5" cx="109.12" cy="100.093" rx="2.92271" ry="2.88562" fill="url(#paint12_linear_0_499)"/>
<ellipse id="Oval 5_2" cx="138.348" cy="100.093" rx="2.92271" ry="2.88562" fill="url(#paint13_linear_0_499)"/>
<ellipse id="Oval 5_3" cx="122.759" cy="134.08" rx="2.92271" ry="2.88562" fill="url(#paint14_linear_0_499)"/>
<g id="Group 23 Copy 6">
<path id="Combined Shape_4" d="M81.76 124.526C83.9322 120.304 86.2237 118.705 88.2988 118.954L91.3327 118.91L91.2325 120.023C96.0568 124.508 98.3623 139.555 91.9637 150.862C90.6167 153.242 89.2897 154.798 88.025 155.667L87.9323 156.696L85.6326 156.526C79.028 156.677 74.9125 137.838 81.76 124.526Z" fill="#D7911D"/>
<path id="Path 10_4" d="M84.9026 124.33C76.0097 141.699 84.92 168.796 94.8398 151.191C104.76 133.586 93.7956 106.961 84.9026 124.33Z" fill="url(#paint15_linear_0_499)"/>
<path id="Path 10 Copy 4" opacity="0.4" d="M86.1783 127.819C79.5975 140.672 86.1912 160.724 93.5319 147.696C100.873 134.669 92.7592 114.966 86.1783 127.819Z" stroke="#D7911D" stroke-width="0.5"/>
<path id="Combined Shape_5" opacity="0.2" fill-rule="evenodd" clip-rule="evenodd" d="M98.4147 140.37C98.4023 140.376 98.3899 140.381 98.3775 140.387C92.3352 143.219 87.2485 147.933 83.6553 152.891C86.1876 158.002 90.4131 159.047 94.8396 151.191C96.7543 147.793 97.891 144.059 98.4147 140.37Z" fill="black"/>
</g>
</g>
<defs>
<filter id="filter0_f_0_499" x="65.1196" y="0.365662" width="244.24" height="243.273" filterUnits="userSpaceOnUse" color-interpolation-filters="sRGB">
<feFlood flood-opacity="0" result="BackgroundImageFix"/>
<feBlend mode="normal" in="SourceGraphic" in2="BackgroundImageFix" result="shape"/>
<feGaussianBlur stdDeviation="14" result="effect1_foregroundBlur_0_499"/>
</filter>
<filter id="filter1_f_0_499" x="110.853" y="160.083" width="90.7119" height="90.0936" filterUnits="userSpaceOnUse" color-interpolation-filters="sRGB">
<feFlood flood-opacity="0" result="BackgroundImageFix"/>
<feBlend mode="normal" in="SourceGraphic" in2="BackgroundImageFix" result="shape"/>
<feGaussianBlur stdDeviation="3.5" result="effect1_foregroundBlur_0_499"/>
</filter>
<filter id="filter2_f_0_499" x="2.92017" y="102.662" width="148.288" height="147.701" filterUnits="userSpaceOnUse" color-interpolation-filters="sRGB">
<feFlood flood-opacity="0" result="BackgroundImageFix"/>
<feBlend mode="normal" in="SourceGraphic" in2="BackgroundImageFix" result="shape"/>
<feGaussianBlur stdDeviation="8.5" result="effect1_foregroundBlur_0_499"/>
</filter>
<linearGradient id="paint0_linear_0_499" x1="144.008" y1="90.8949" x2="22.3485" y2="133.508" gradientUnits="userSpaceOnUse">
<stop stop-color="#EDB64F"/>
<stop offset="1" stop-color="#DD26BC"/>
</linearGradient>
<linearGradient id="paint1_linear_0_499" x1="140.012" y1="203.395" x2="66.7168" y2="159.144" gradientUnits="userSpaceOnUse">
<stop stop-color="#6B1B98"/>
<stop offset="1" stop-color="#DE0F62"/>
</linearGradient>
<linearGradient id="paint2_linear_0_499" x1="87.0905" y1="168.848" x2="55.8723" y2="211.346" gradientUnits="userSpaceOnUse">
<stop stop-color="#FFD599"/>
<stop offset="0.482372" stop-color="#D178A0"/>
<stop offset="1" stop-color="#FFCE08"/>
</linearGradient>
<linearGradient id="paint3_linear_0_499" x1="52.9479" y1="46.5489" x2="52.9479" y2="243.076" gradientUnits="userSpaceOnUse">
<stop stop-color="#FDF27D" stop-opacity="0.01"/>
<stop offset="0.4936" stop-color="#FCF17B" stop-opacity="0.240234"/>
<stop offset="1" stop-color="#FBF079"/>
</linearGradient>
<linearGradient id="paint4_linear_0_499" x1="88.786" y1="57" x2="88.786" y2="197.904" gradientUnits="userSpaceOnUse">
<stop stop-color="#FDF27D" stop-opacity="0.01"/>
<stop offset="0.4936" stop-color="#FCF17B" stop-opacity="0.240234"/>
<stop offset="1" stop-color="#FBF079"/>
</linearGradient>
<linearGradient id="paint5_linear_0_499" x1="139.594" y1="108.274" x2="123.651" y2="155.027" gradientUnits="userSpaceOnUse">
<stop stop-color="#FFF585"/>
<stop offset="1" stop-color="#DCC613"/>
</linearGradient>
<linearGradient id="paint6_linear_0_499" x1="77.4957" y1="124.033" x2="111.076" y2="87.8062" gradientUnits="userSpaceOnUse">
<stop stop-color="#FFF585"/>
<stop offset="1" stop-color="#DCC613"/>
</linearGradient>
<linearGradient id="paint7_linear_0_499" x1="134.857" y1="78.5795" x2="154.997" y2="107.639" gradientUnits="userSpaceOnUse">
<stop stop-color="#FFF585"/>
<stop offset="1" stop-color="#DCC613"/>
</linearGradient>
<linearGradient id="paint8_linear_0_499" x1="148.18" y1="120.084" x2="73.5912" y2="204.681" gradientUnits="userSpaceOnUse">
<stop stop-color="#EDB64F"/>
<stop offset="0.977895" stop-color="#E64082"/>
</linearGradient>
<linearGradient id="paint9_linear_0_499" x1="133.137" y1="157.67" x2="87.2428" y2="157.67" gradientUnits="userSpaceOnUse">
<stop stop-color="#FFD066"/>
<stop offset="1" stop-color="#CE1D64"/>
</linearGradient>
<linearGradient id="paint10_linear_0_499" x1="120.594" y1="81.4971" x2="77.4992" y2="105.656" gradientUnits="userSpaceOnUse">
<stop stop-color="#FFD599"/>
<stop offset="0.482372" stop-color="#D178A0"/>
<stop offset="1" stop-color="#FFE26F"/>
</linearGradient>
<linearGradient id="paint11_linear_0_499" x1="101.265" y1="95.092" x2="79.1145" y2="162.868" gradientUnits="userSpaceOnUse">
<stop stop-color="#FFD599"/>
<stop offset="1" stop-color="#A014A8"/>
</linearGradient>
<linearGradient id="paint12_linear_0_499" x1="332.506" y1="302.378" x2="326.791" y2="286.401" gradientUnits="userSpaceOnUse">
<stop stop-color="#FFFCF5"/>
<stop offset="1" stop-color="#FFEFAD"/>
</linearGradient>
<linearGradient id="paint13_linear_0_499" x1="420.188" y1="302.378" x2="414.473" y2="286.401" gradientUnits="userSpaceOnUse">
<stop stop-color="#FFFCF5"/>
<stop offset="1" stop-color="#FFEFAD"/>
</linearGradient>
<linearGradient id="paint14_linear_0_499" x1="373.423" y1="404.337" x2="367.708" y2="388.359" gradientUnits="userSpaceOnUse">
<stop stop-color="#FFFCF5"/>
<stop offset="1" stop-color="#FFEFAD"/>
</linearGradient>
<linearGradient id="paint15_linear_0_499" x1="64.4009" y1="126.26" x2="71.7966" y2="169.42" gradientUnits="userSpaceOnUse">
<stop stop-color="#FFF585"/>
<stop offset="1" stop-color="#DCC613"/>
</linearGradient>
</defs>
</svg>
